<mxfile host="app.diagrams.net" modified="2023-05-05T02:50:25.581Z" agent="Mozilla/5.0 (Macintosh; Intel Mac OS X 10_15_7) AppleWebKit/537.36 (KHTML, like Gecko) Chrome/112.0.0.0 Safari/537.36" etag="e5nnUaHhoMfH-DWS45DQ" version="21.2.3" type="github">
  <diagram name="第 1 页" id="SvlKRZAsS5fjWFg07Qbq">
    <mxGraphModel dx="2804" dy="980" grid="1" gridSize="10" guides="1" tooltips="1" connect="1" arrows="1" fold="1" page="1" pageScale="1" pageWidth="827" pageHeight="1169" math="0" shadow="0">
      <root>
        <mxCell id="0" />
        <mxCell id="1" parent="0" />
        <mxCell id="Sg5Pw09IYqug7npWiGRt-1" value="" style="rounded=0;whiteSpace=wrap;html=1;" vertex="1" parent="1">
          <mxGeometry x="240" y="450" width="610" height="350" as="geometry" />
        </mxCell>
        <mxCell id="Sg5Pw09IYqug7npWiGRt-6" style="edgeStyle=orthogonalEdgeStyle;rounded=0;orthogonalLoop=1;jettySize=auto;html=1;" edge="1" parent="1" source="Sg5Pw09IYqug7npWiGRt-2" target="Sg5Pw09IYqug7npWiGRt-4">
          <mxGeometry relative="1" as="geometry" />
        </mxCell>
        <mxCell id="Sg5Pw09IYqug7npWiGRt-2" value="ingress&lt;br&gt;controller" style="ellipse;whiteSpace=wrap;html=1;" vertex="1" parent="1">
          <mxGeometry x="180" y="505" width="120" height="80" as="geometry" />
        </mxCell>
        <mxCell id="Sg5Pw09IYqug7npWiGRt-5" style="edgeStyle=orthogonalEdgeStyle;rounded=0;orthogonalLoop=1;jettySize=auto;html=1;" edge="1" parent="1" source="Sg5Pw09IYqug7npWiGRt-3" target="Sg5Pw09IYqug7npWiGRt-2">
          <mxGeometry relative="1" as="geometry" />
        </mxCell>
        <mxCell id="Sg5Pw09IYqug7npWiGRt-3" value="公网域名" style="ellipse;shape=cloud;whiteSpace=wrap;html=1;" vertex="1" parent="1">
          <mxGeometry x="-70" y="485" width="120" height="80" as="geometry" />
        </mxCell>
        <mxCell id="Sg5Pw09IYqug7npWiGRt-8" value="" style="edgeStyle=orthogonalEdgeStyle;rounded=0;orthogonalLoop=1;jettySize=auto;html=1;" edge="1" parent="1" source="Sg5Pw09IYqug7npWiGRt-4" target="Sg5Pw09IYqug7npWiGRt-7">
          <mxGeometry relative="1" as="geometry" />
        </mxCell>
        <mxCell id="Sg5Pw09IYqug7npWiGRt-4" value="gateway" style="rounded=1;whiteSpace=wrap;html=1;" vertex="1" parent="1">
          <mxGeometry x="340" y="525" width="80" height="40" as="geometry" />
        </mxCell>
        <mxCell id="Sg5Pw09IYqug7npWiGRt-22" style="edgeStyle=orthogonalEdgeStyle;rounded=0;orthogonalLoop=1;jettySize=auto;html=1;dashed=1;" edge="1" parent="1" source="Sg5Pw09IYqug7npWiGRt-7" target="Sg5Pw09IYqug7npWiGRt-12">
          <mxGeometry relative="1" as="geometry" />
        </mxCell>
        <mxCell id="Sg5Pw09IYqug7npWiGRt-23" value="1.查找k8s svc name" style="edgeLabel;html=1;align=center;verticalAlign=middle;resizable=0;points=[];" vertex="1" connectable="0" parent="Sg5Pw09IYqug7npWiGRt-22">
          <mxGeometry x="-0.2" y="3" relative="1" as="geometry">
            <mxPoint as="offset" />
          </mxGeometry>
        </mxCell>
        <mxCell id="Sg5Pw09IYqug7npWiGRt-24" style="rounded=0;orthogonalLoop=1;jettySize=auto;html=1;entryX=0;entryY=0.5;entryDx=0;entryDy=0;dashed=1;" edge="1" parent="1" source="Sg5Pw09IYqug7npWiGRt-7" target="Sg5Pw09IYqug7npWiGRt-15">
          <mxGeometry relative="1" as="geometry" />
        </mxCell>
        <mxCell id="Sg5Pw09IYqug7npWiGRt-25" value="2.查找cluster ip" style="edgeLabel;html=1;align=center;verticalAlign=middle;resizable=0;points=[];" vertex="1" connectable="0" parent="Sg5Pw09IYqug7npWiGRt-24">
          <mxGeometry x="0.0696" y="1" relative="1" as="geometry">
            <mxPoint as="offset" />
          </mxGeometry>
        </mxCell>
        <mxCell id="Sg5Pw09IYqug7npWiGRt-28" style="edgeStyle=orthogonalEdgeStyle;rounded=0;orthogonalLoop=1;jettySize=auto;html=1;" edge="1" parent="1" source="Sg5Pw09IYqug7npWiGRt-7" target="Sg5Pw09IYqug7npWiGRt-27">
          <mxGeometry relative="1" as="geometry" />
        </mxCell>
        <mxCell id="Sg5Pw09IYqug7npWiGRt-31" value="3.访问http" style="edgeLabel;html=1;align=center;verticalAlign=middle;resizable=0;points=[];" vertex="1" connectable="0" parent="Sg5Pw09IYqug7npWiGRt-28">
          <mxGeometry x="-0.1714" y="2" relative="1" as="geometry">
            <mxPoint as="offset" />
          </mxGeometry>
        </mxCell>
        <mxCell id="Sg5Pw09IYqug7npWiGRt-7" value="web" style="rounded=1;whiteSpace=wrap;html=1;" vertex="1" parent="1">
          <mxGeometry x="340" y="610" width="80" height="40" as="geometry" />
        </mxCell>
        <mxCell id="Sg5Pw09IYqug7npWiGRt-9" value="不走kube-proxy" style="text;html=1;strokeColor=none;fillColor=none;align=center;verticalAlign=middle;whiteSpace=wrap;rounded=0;" vertex="1" parent="1">
          <mxGeometry x="280" y="475" width="90" height="30" as="geometry" />
        </mxCell>
        <mxCell id="Sg5Pw09IYqug7npWiGRt-12" value="eureka" style="rounded=1;whiteSpace=wrap;html=1;" vertex="1" parent="1">
          <mxGeometry x="340" y="730" width="80" height="40" as="geometry" />
        </mxCell>
        <mxCell id="Sg5Pw09IYqug7npWiGRt-15" value="core-dns" style="rounded=1;whiteSpace=wrap;html=1;" vertex="1" parent="1">
          <mxGeometry x="505" y="730" width="80" height="40" as="geometry" />
        </mxCell>
        <mxCell id="Sg5Pw09IYqug7npWiGRt-16" value="" style="rounded=0;whiteSpace=wrap;html=1;fillColor=#d5e8d4;strokeColor=#82b366;" vertex="1" parent="1">
          <mxGeometry x="670" y="510" width="140" height="240" as="geometry" />
        </mxCell>
        <mxCell id="Sg5Pw09IYqug7npWiGRt-17" value="core1" style="rounded=1;whiteSpace=wrap;html=1;" vertex="1" parent="1">
          <mxGeometry x="700" y="545" width="80" height="40" as="geometry" />
        </mxCell>
        <mxCell id="Sg5Pw09IYqug7npWiGRt-18" value="core2" style="rounded=1;whiteSpace=wrap;html=1;" vertex="1" parent="1">
          <mxGeometry x="700" y="610" width="80" height="40" as="geometry" />
        </mxCell>
        <mxCell id="Sg5Pw09IYqug7npWiGRt-19" value="core3" style="rounded=1;whiteSpace=wrap;html=1;" vertex="1" parent="1">
          <mxGeometry x="700" y="680" width="80" height="40" as="geometry" />
        </mxCell>
        <mxCell id="Sg5Pw09IYqug7npWiGRt-20" value="deployment" style="text;html=1;strokeColor=none;fillColor=none;align=center;verticalAlign=middle;whiteSpace=wrap;rounded=0;" vertex="1" parent="1">
          <mxGeometry x="700" y="510" width="70" height="30" as="geometry" />
        </mxCell>
        <mxCell id="Sg5Pw09IYqug7npWiGRt-29" style="edgeStyle=orthogonalEdgeStyle;rounded=0;orthogonalLoop=1;jettySize=auto;html=1;" edge="1" parent="1" source="Sg5Pw09IYqug7npWiGRt-27" target="Sg5Pw09IYqug7npWiGRt-16">
          <mxGeometry relative="1" as="geometry" />
        </mxCell>
        <mxCell id="Sg5Pw09IYqug7npWiGRt-30" value="负载均衡" style="edgeLabel;html=1;align=center;verticalAlign=middle;resizable=0;points=[];" vertex="1" connectable="0" parent="Sg5Pw09IYqug7npWiGRt-29">
          <mxGeometry x="-0.1765" relative="1" as="geometry">
            <mxPoint as="offset" />
          </mxGeometry>
        </mxCell>
        <mxCell id="Sg5Pw09IYqug7npWiGRt-27" value="所在node &lt;br&gt;service kube-proxy" style="rounded=0;whiteSpace=wrap;html=1;" vertex="1" parent="1">
          <mxGeometry x="490" y="610" width="120" height="40" as="geometry" />
        </mxCell>
        <mxCell id="Sg5Pw09IYqug7npWiGRt-32" value="根据host header/path转发" style="text;html=1;strokeColor=none;fillColor=none;align=center;verticalAlign=middle;whiteSpace=wrap;rounded=0;" vertex="1" parent="1">
          <mxGeometry x="130" y="470" width="100" height="30" as="geometry" />
        </mxCell>
        <mxCell id="Sg5Pw09IYqug7npWiGRt-34" style="edgeStyle=orthogonalEdgeStyle;rounded=0;orthogonalLoop=1;jettySize=auto;html=1;entryX=0.017;entryY=0.688;entryDx=0;entryDy=0;entryPerimeter=0;" edge="1" parent="1" source="Sg5Pw09IYqug7npWiGRt-33" target="Sg5Pw09IYqug7npWiGRt-2">
          <mxGeometry relative="1" as="geometry" />
        </mxCell>
        <mxCell id="Sg5Pw09IYqug7npWiGRt-33" value="内网域名" style="ellipse;shape=cloud;whiteSpace=wrap;html=1;" vertex="1" parent="1">
          <mxGeometry x="-70" y="600" width="120" height="80" as="geometry" />
        </mxCell>
      </root>
    </mxGraphModel>
  </diagram>
</mxfile>
